<svg t="1567765536834" class="icon" viewBox="0 0 1024 1024" version="1.1" xmlns="http://www.w3.org/2000/svg" p-id="1997" width="36" height="36"><path d="M512 1024c282.7648 0 512-229.2352 512-512S794.7648 0 512 0 0 229.2352 0 512s229.2352 512 512 512z m-44.9152-673.6896c0-14.8864 12.1216-26.944 26.8288-26.944h323.6096c14.8224 0 26.8288 11.9552 26.8288 26.944a26.9568 26.9568 0 0 1-26.8288 26.944H493.9136a26.816 26.816 0 0 1-26.8288-26.944z m0 170.6752c0-14.8864 12.1216-26.944 26.8288-26.944h323.6096c14.8224 0 26.8288 11.9552 26.8288 26.944a26.9568 26.9568 0 0 1-26.8288 26.944H493.9136a26.816 26.816 0 0 1-26.8288-26.944z m0 152.704c0-14.8864 12.1216-26.944 26.8288-26.944h323.6096c14.8224 0 26.8288 11.9552 26.8288 26.944a26.9568 26.9568 0 0 1-26.8288 26.944H493.9136a26.816 26.816 0 0 1-26.8288-26.944zM323.3664 404.2112a53.9008 53.9008 0 1 1 0-107.8016 53.9008 53.9008 0 0 1 0 107.8016z m0 170.6624a53.9008 53.9008 0 1 1 0-107.8016 53.9008 53.9008 0 0 1 0 107.8016z m0 161.6896a53.9008 53.9008 0 1 1 0-107.8016 53.9008 53.9008 0 0 1 0 107.8016z" fill="#228FD4" p-id="1998"></path></svg>