<svg t="1567765630346" class="icon" viewBox="0 0 1024 1024" version="1.1" xmlns="http://www.w3.org/2000/svg" p-id="6087" width="36" height="36"><path d="M512 1024C229.2224 1024 0 794.7776 0 512S229.2224 0 512 0s512 229.2224 512 512-229.2224 512-512 512z m-179.2-742.4h358.4a51.2 51.2 0 1 1 0 102.4H332.8a51.2 51.2 0 1 1 0-102.4z m0-25.6a76.8 76.8 0 0 0 0 153.6h358.4a76.8 76.8 0 0 0 0-153.6H332.8z m25.6 115.2a38.4 38.4 0 1 0 0-76.8 38.4 38.4 0 0 0 0 76.8z m0-25.6a12.8 12.8 0 1 1 0-25.6 12.8 12.8 0 0 1 0 25.6z m243.2-12.8h76.8a12.8 12.8 0 1 0 0-25.6h-76.8a12.8 12.8 0 1 0 0 25.6zM332.8 460.8h358.4a51.2 51.2 0 1 1 0 102.4H332.8a51.2 51.2 0 1 1 0-102.4z m0-25.6a76.8 76.8 0 0 0 0 153.6h358.4a76.8 76.8 0 0 0 0-153.6H332.8z m25.6 115.2a38.4 38.4 0 1 0 0-76.8 38.4 38.4 0 0 0 0 76.8z m0-25.6a12.8 12.8 0 1 1 0-25.6 12.8 12.8 0 0 1 0 25.6z m243.2-12.8h76.8a12.8 12.8 0 1 0 0-25.6h-76.8a12.8 12.8 0 1 0 0 25.6zM332.8 640h358.4a51.2 51.2 0 1 1 0 102.4H332.8a51.2 51.2 0 1 1 0-102.4z m0-25.6a76.8 76.8 0 0 0 0 153.6h358.4a76.8 76.8 0 0 0 0-153.6H332.8z m332.8 115.2a38.4 38.4 0 1 0 0-76.8 38.4 38.4 0 0 0 0 76.8z m0-25.6a12.8 12.8 0 1 1 0-25.6 12.8 12.8 0 0 1 0 25.6z m-345.6-25.984c0 21.3248 17.28 38.6048 38.5792 38.6048h26.7008a12.8 12.8 0 1 0 0-25.6h-26.7008a12.9792 12.9792 0 0 1-12.9792-13.0048 12.8 12.8 0 0 0-25.6 0z" p-id="6088" fill="#C38331"></path></svg>