<svg t="1567765689643" class="icon" viewBox="0 0 1024 1024" version="1.1" xmlns="http://www.w3.org/2000/svg" p-id="7902" width="36" height="36"><path d="M509.192826 43.530017C250.399951 43.530017 39.85736 254.08766 39.85736 512.865483s210.53958 469.335466 469.335466 469.335465c258.792875 0 469.335466-210.554632 469.335465-469.335465 0-258.777823-210.542591-469.335466-469.335465-469.335466z m0 733.336289c-32.734814 0-59.277287-26.533442-59.277287-59.274276h118.551563c0 32.737824-26.530432 59.274276-59.274276 59.274276z m169.363676-79.037386H339.83517c-18.72152 0-33.872735-15.169278-33.872735-33.869725 0-3.994767 0.996434-7.71559 2.281864-11.288905 0 0 0.201695-2.459476 1.532281-3.612449 2.802659-5.596286 7.158671-10.024547 12.444888-13.323918 23.282237-30.687759 28.902607-73.386913 28.902607-73.386913V443.789427c0-71.264598 50.908445-130.484688 119.463707-147.104967a39.327534 39.327534 0 0 1-0.909134-8.302613c0-21.825216 17.688961-39.517188 39.517188-39.517187 21.819195 0 39.517188 17.691972 39.517188 39.517187 0 2.850825-0.334152 5.620369-0.909133 8.296593 68.54623 16.623289 119.460696 75.843378 119.460696 147.110987v118.557583s5.62338 42.699154 28.905617 73.386913c5.286218 3.299371 9.64223 7.724621 12.441878 13.323918 1.315534 1.146953 1.541312 3.61245 1.541312 3.612449 1.28543 3.573315 2.275843 7.294138 2.275843 11.288905-0.00301 18.700447-15.172288 33.869725-33.872735 33.869725z m0 0" p-id="7903" fill="#d81e06"></path></svg>