<svg t="1567765802107" class="icon" viewBox="0 0 1024 1024" version="1.1" xmlns="http://www.w3.org/2000/svg" p-id="16364" width="36" height="36"><path d="M512 516.6c1.9 0 1.9-3 0-3s-1.9 3 0 3z" fill="#4A545F" p-id="16365"></path><path d="M512 515.1m-480 0a480 480 0 1 0 960 0 480 480 0 1 0-960 0Z" fill="#1afa29" p-id="16366" data-spm-anchor-id="a313x.7781069.0.i19" class="selected"></path><path d="M836.7 385.3c-22-37.9-53.5-69.7-91.1-92.1-7.1-4.2-16.2-1.9-20.4 5.2-4.2 7.1-1.9 16.2 5.2 20.4 33.3 19.8 61.1 48 80.6 81.5 20 34.6 30.6 74.1 30.6 114.1 0 40.5-10.8 80.3-31.1 115-19.7 33.7-48 61.9-81.3 81.5-8.2 0-14.9 6.7-14.9 14.9s6.7 14.9 14.9 14.9c5.1 0 10.1-1.3 14.5-3.9 38.2-22.3 70.1-54.3 92.4-92.3 23.1-39.3 35.3-84.2 35.3-130.1 0-45.4-12-90-34.7-129.1z m0 0" fill="#FFFFFF" p-id="16367"></path><path d="M746.1 514.6c0-26.9-7.1-53.4-20.6-76.6-13-22.4-31.7-41.4-54.1-54.7-7.1-4.2-16.2-1.9-20.4 5.2-4.2 7.1-1.9 16.2 5.2 20.4 18 10.7 33.1 26 43.6 44.1 10.8 18.7 16.6 40 16.6 61.7 0 21.9-5.8 43.4-16.8 62.2-10.7 18.2-26 33.5-43.7 44-8.2 0-14.9 6.7-14.9 14.9s6.7 14.9 14.9 14.9c5.1 0 10.2-1.4 14.5-3.9 22.6-13.2 41.6-32.2 54.9-54.8 13.6-23.6 20.8-50.3 20.8-77.4z m0 0M582.2 224c-5.6-8.8-12.6-12.9-19.4-16-13.4-6.1-30-4.9-48.1 3.5-11.3 5.3-19.9 11.8-21.4 13L327.4 348.8l-0.5 0.4c-30.3 24.8-75 22.8-75.4 22.8h-0.8c-49.5 0-91.5 37.2-97.6 86.6L152 470v89.8l1.1 11.1v0.3c6.1 49.4 48.1 86.6 97.6 86.6h0.2c39.3-0.5 74.4 22 75.7 22.8L467 786.8l26.8 18.7c3.5 2.5 28.5 19.6 53.7 19.6 5.2 0 10.3-0.7 15.2-2.4 25.8-8.8 28.5-32.9 28.9-54.8V261.3c-0.9-16.8-3.9-28.6-9.4-37.3z m0 0" fill="#FFFFFF" p-id="16368"></path></svg>